<svg width="16" height="13" viewBox="0 0 16 13" fill="none" xmlns="http://www.w3.org/2000/svg">
<g clip-path="url(#clip0)">
<path d="M5.929 0.756998C5.96275 0.700661 5.98507 0.638228 5.99469 0.573264C6.00432 0.5083 6.00105 0.442077 5.98508 0.378376C5.9691 0.314675 5.94074 0.254744 5.90161 0.202004C5.86248 0.149264 5.81334 0.104748 5.757 0.0709985C5.70066 0.0372487 5.63823 0.0149259 5.57327 0.00530447C5.5083 -0.00431693 5.44208 -0.00104844 5.37838 0.0149232C5.31468 0.0308949 5.25475 0.059257 5.20201 0.0983902C5.14927 0.137523 5.10475 0.186661 5.071 0.242998L2.217 5H0.5C0.367392 5 0.240215 5.05268 0.146447 5.14645C0.0526784 5.24021 0 5.36739 0 5.5V6.5C0 6.63261 0.0526784 6.75978 0.146447 6.85355C0.240215 6.94732 0.367392 7 0.5 7H1.123L2.967 13.456C3.01185 13.613 3.10673 13.7511 3.23723 13.8493C3.36772 13.9475 3.52669 14.0004 3.69 14H12.312C12.4751 14.0002 12.6339 13.9472 12.7642 13.849C12.8945 13.7508 12.9892 13.6129 13.034 13.456L14.877 7H15.5C15.6326 7 15.7598 6.94732 15.8536 6.85355C15.9473 6.75978 16 6.63261 16 6.5V5.5C16 5.36739 15.9473 5.24021 15.8536 5.14645C15.7598 5.05268 15.6326 5 15.5 5H13.783L10.93 0.242998C10.8963 0.186661 10.8517 0.137523 10.799 0.0983902C10.7463 0.059257 10.6863 0.0308949 10.6226 0.0149232C10.5589 -0.00104844 10.4927 -0.00431693 10.4277 0.00530447C10.3628 0.0149259 10.3003 0.0372487 10.244 0.0709985C10.1877 0.104748 10.1385 0.149264 10.0994 0.202004C10.0603 0.254744 10.0319 0.314675 10.0159 0.378376C9.99995 0.442077 9.99668 0.5083 10.0063 0.573264C10.0159 0.638228 10.0382 0.700661 10.072 0.756998L12.617 5H3.383L5.93 0.756998H5.929ZM4 9C4 8.73478 4.10536 8.48043 4.29289 8.29289C4.48043 8.10536 4.73478 8 5 8C5.26522 8 5.51957 8.10536 5.70711 8.29289C5.89464 8.48043 6 8.73478 6 9V11C6 11.2652 5.89464 11.5196 5.70711 11.7071C5.51957 11.8946 5.26522 12 5 12C4.73478 12 4.48043 11.8946 4.29289 11.7071C4.10536 11.5196 4 11.2652 4 11V9ZM7 9C7 8.73478 7.10536 8.48043 7.29289 8.29289C7.48043 8.10536 7.73478 8 8 8C8.26522 8 8.51957 8.10536 8.70711 8.29289C8.89464 8.48043 9 8.73478 9 9V11C9 11.2652 8.89464 11.5196 8.70711 11.7071C8.51957 11.8946 8.26522 12 8 12C7.73478 12 7.48043 11.8946 7.29289 11.7071C7.10536 11.5196 7 11.2652 7 11V9ZM11 8C11.2652 8 11.5196 8.10536 11.7071 8.29289C11.8946 8.48043 12 8.73478 12 9V11C12 11.2652 11.8946 11.5196 11.7071 11.7071C11.5196 11.8946 11.2652 12 11 12C10.7348 12 10.4804 11.8946 10.2929 11.7071C10.1054 11.5196 10 11.2652 10 11V9C10 8.73478 10.1054 8.48043 10.2929 8.29289C10.4804 8.10536 10.7348 8 11 8Z" fill="white"/>
</g>
<defs>
<clipPath id="clip0">
<rect width="16" height="13" fill="white"/>
</clipPath>
</defs>
</svg>
