<svg width="33" height="33" viewBox="0 0 33 33" fill="none" xmlns="http://www.w3.org/2000/svg">
<path d="M16.5 30.25C21.5625 30.25 25.6666 24.0939 25.6666 16.5C25.6666 8.90613 21.5625 2.75003 16.5 2.75003C11.4374 2.75003 7.33331 8.90613 7.33331 16.5C7.33331 24.0939 11.4374 30.25 16.5 30.25Z" fill="#FA8938"/>
<path d="M15.6406 16.367H16.303C16.6372 16.3626 16.9013 16.2328 17.0953 15.9776C17.2922 15.7225 17.3907 15.3533 17.3907 14.8699C17.3907 14.4044 17.3086 14.044 17.1445 13.7889C16.9834 13.5293 16.7357 13.3995 16.4015 13.3995C16.1091 13.3995 15.8689 13.5271 15.6809 13.7822C15.4929 14.0328 15.3989 14.3618 15.3989 14.7692H14.3113C14.3113 14.2678 14.3993 13.8113 14.5754 13.3995C14.7544 12.9877 15.002 12.6677 15.3183 12.4394C15.6376 12.2067 15.9942 12.0903 16.3881 12.0903C17.0386 12.0903 17.5488 12.3365 17.9189 12.8288C18.2918 13.3167 18.4783 13.997 18.4783 14.8699C18.4783 15.3085 18.3843 15.7225 18.1963 16.1119C18.0113 16.4968 17.7711 16.7878 17.4757 16.9847C17.8338 17.1682 18.1053 17.4569 18.2903 17.8508C18.4783 18.2447 18.5724 18.7147 18.5724 19.2607C18.5724 20.138 18.3709 20.8362 17.9681 21.3554C17.5682 21.8747 17.0416 22.1343 16.3881 22.1343C15.7615 22.1343 15.2482 21.8836 14.8484 21.3823C14.4485 20.881 14.2486 20.2141 14.2486 19.3816H15.3362C15.3362 19.8113 15.4317 20.1604 15.6227 20.4289C15.8167 20.6975 16.0763 20.8318 16.4015 20.8318C16.7387 20.8318 17.0043 20.6975 17.1982 20.4289C17.3922 20.1604 17.4892 19.771 17.4892 19.2607C17.4892 18.746 17.3877 18.3499 17.1848 18.0724C16.9819 17.7949 16.6805 17.6561 16.2807 17.6561H15.6406V16.367Z" fill="white" fill-opacity="0.7"/>
<path d="M16.5 33C25.6126 33 33 25.6127 33 16.5C33 7.38731 25.6126 0 16.5 0C7.38731 0 0 7.38731 0 16.5C0 25.6127 7.38731 33 16.5 33Z" fill="#FEA0A3"/>
<path d="M19.3432 16.5L23.6075 12.2357C24.1308 11.7124 24.1308 10.8639 23.6075 10.3402L22.6598 9.39247C22.1365 8.86918 21.2881 8.86918 20.7643 9.39247L16.5 13.6568L12.2357 9.39247C11.7124 8.86918 10.8639 8.86918 10.3402 9.39247L9.39247 10.3402C8.86918 10.8635 8.86918 11.7119 9.39247 12.2357L13.6568 16.5L9.39247 20.7643C8.86918 21.2876 8.86918 22.1361 9.39247 22.6598L10.3402 23.6075C10.8635 24.1308 11.7124 24.1308 12.2357 23.6075L16.5 19.3432L20.7643 23.6075C21.2876 24.1308 22.1365 24.1308 22.6598 23.6075L23.6075 22.6598C24.1308 22.1365 24.1308 21.2881 23.6075 20.7643L19.3432 16.5Z" fill="white"/>
</svg>
