<svg width="15" height="10" viewBox="0 0 15 10" fill="none" xmlns="http://www.w3.org/2000/svg">
<path d="M7.5 9.16667C9.80116 9.16667 11.6667 7.30118 11.6667 5C11.6667 2.69882 9.80116 0.833333 7.5 0.833333C5.19881 0.833333 3.33333 2.69882 3.33333 5C3.33333 7.30118 5.19881 9.16667 7.5 9.16667Z" fill="#FEA0A3"/>
<path d="M7.10938 4.95972H7.41049C7.5624 4.95836 7.68243 4.91902 7.7706 4.84172C7.86011 4.76441 7.90487 4.65251 7.90487 4.50602C7.90487 4.36497 7.86757 4.25577 7.79297 4.17847C7.71973 4.0998 7.60715 4.06047 7.45525 4.06047C7.32232 4.06047 7.21314 4.09912 7.12769 4.17643C7.04224 4.25238 6.99951 4.35207 6.99951 4.47551H6.50513C6.50513 4.32359 6.54515 4.18525 6.62517 4.06047C6.70655 3.93568 6.81912 3.83871 6.9629 3.76953C7.10802 3.699 7.2701 3.66373 7.44914 3.66373C7.74482 3.66373 7.97675 3.73833 8.14495 3.88753C8.31449 4.03537 8.39925 4.24153 8.39925 4.50602C8.39925 4.63894 8.3565 4.76441 8.27108 4.88241C8.18699 4.99905 8.0778 5.08721 7.94353 5.14689C8.10629 5.2025 8.22971 5.28998 8.3138 5.40934C8.39925 5.5287 8.442 5.67112 8.442 5.83659C8.442 6.10243 8.35042 6.31402 8.16732 6.47135C7.98557 6.62869 7.74618 6.70736 7.44914 6.70736C7.16431 6.70736 6.93102 6.6314 6.74927 6.47949C6.56752 6.32758 6.47665 6.12549 6.47665 5.87321H6.97103C6.97103 6.00342 7.01444 6.10921 7.10124 6.19059C7.1894 6.27197 7.3074 6.31267 7.45525 6.31267C7.60851 6.31267 7.72923 6.27197 7.81739 6.19059C7.90555 6.10921 7.94963 5.99121 7.94963 5.83659C7.94963 5.68061 7.90351 5.56057 7.81129 5.47648C7.71905 5.39239 7.58206 5.35034 7.40031 5.35034H7.10938V4.95972Z" fill="white" fill-opacity="0.7"/>
<path d="M7.5 9.16667C9.80116 9.16667 11.6667 7.30118 11.6667 5C11.6667 2.69882 9.80116 0.833333 7.5 0.833333C5.19881 0.833333 3.33333 2.69882 3.33333 5C3.33333 7.30118 5.19881 9.16667 7.5 9.16667Z" fill="#FEA0A3"/>
<path d="M8.06864 5L8.92151 4.14713C9.02617 4.04247 9.02617 3.87278 8.92151 3.76804L8.73196 3.57849C8.6273 3.47384 8.45761 3.47384 8.35287 3.57849L7.5 4.43136L6.64713 3.57849C6.54247 3.47384 6.37278 3.47384 6.26804 3.57849L6.07849 3.76804C5.97384 3.8727 5.97384 4.04239 6.07849 4.14713L6.93136 5L6.07849 5.85287C5.97384 5.95753 5.97384 6.12722 6.07849 6.23196L6.26804 6.42151C6.3727 6.52617 6.54247 6.52617 6.64713 6.42151L7.5 5.56864L8.35287 6.42151C8.45753 6.52617 8.6273 6.52617 8.73196 6.42151L8.92151 6.23196C9.02617 6.1273 9.02617 5.95761 8.92151 5.85287L8.06864 5Z" fill="white"/>
</svg>
