<svg width="34" height="35" viewBox="0 0 34 35" fill="none" xmlns="http://www.w3.org/2000/svg">
<path d="M3.33333 13.3333H26.6667V16.6667H30V6.66667C30 4.83333 28.5 3.33333 26.6667 3.33333H25V0H21.6667V3.33333H8.33333V0H5V3.33333H3.33333C1.48333 3.33333 0.0166667 4.83333 0.0166667 6.66667L0 30C0 31.8333 1.48333 33.3333 3.33333 33.3333H15V30H3.33333V13.3333ZM3.33333 6.66667H26.6667V10H3.33333V6.66667ZM33.0667 23.8L31.8833 24.9833L28.35 21.45L29.5333 20.2667C30.1833 19.6167 31.2333 19.6167 31.8833 20.2667L33.0667 21.45C33.7167 22.1 33.7167 23.15 33.0667 23.8ZM27.1667 22.6333L30.7 26.1667L21.8667 35H18.3333V31.4667L27.1667 22.6333Z" fill="white"/>
</svg>
