<svg width="14" height="14" viewBox="0 0 14 14" fill="none" xmlns="http://www.w3.org/2000/svg">
<g clip-path="url(#clip0)">
<path d="M7 2.91667C7.94313 2.91667 8.80909 3.23956 9.50034 3.77654L11.622 1.75239C10.3885 0.664971 8.77368 0 7 0C4.31223 0 1.98139 1.51661 0.80838 3.73908L3.16764 5.60162C3.73915 4.0363 5.23686 2.91667 7 2.91667Z" fill="#FEFEFE"/>
<path d="M13.9394 7.87606C13.9758 7.58929 14 7.29675 14 7.00001C14 6.49962 13.9453 6.01231 13.8455 5.54167H7V8.45834H10.7836C10.4775 9.25389 9.93253 9.92706 9.23883 10.3947L11.6069 12.2642C12.8621 11.1623 13.7212 9.61941 13.9394 7.87606Z" fill="#FEFEFE"/>
<path d="M2.91667 6.99999C2.91667 6.50801 3.00817 6.03843 3.16764 5.60162L0.808383 3.73907C0.294194 4.71334 0 5.82176 0 6.99999C0 8.16509 0.288783 9.26117 0.792295 10.2276L3.15454 8.3626C3.00326 7.93589 2.91667 7.47856 2.91667 6.99999Z" fill="#FEFEFE"/>
<path d="M7 11.0833C5.22344 11.0833 3.71608 9.94671 3.15454 8.36261L0.792297 10.2276C1.95956 12.4679 4.29906 14 7 14C8.76622 14 10.3768 13.3439 11.6069 12.2642L9.23884 10.3947C8.59904 10.826 7.83324 11.0833 7 11.0833Z" fill="#FEFEFE"/>
<path opacity="0.1" d="M7 13.8542C4.93986 13.8542 3.08742 13.0041 1.77774 11.6499C3.0598 13.0887 4.92127 14 7 14C9.05952 14 10.9056 13.1067 12.1847 11.6905C10.8789 13.0227 9.04056 13.8542 7 13.8542Z" fill="#FEFEFE"/>
<path opacity="0.1" d="M7 8.3125V8.45833H10.7836L10.8427 8.3125H7Z" fill="#FEFEFE"/>
<path d="M13.9967 7.08574C13.9972 7.05705 14.0002 7.02881 14.0002 7C14.0002 6.99183 13.9989 6.98395 13.9988 6.97585C13.9984 7.01254 13.9964 7.04888 13.9967 7.08574Z" fill="#E6E6E6"/>
<path opacity="0.2" d="M7 5.54167V5.6875H13.8749C13.8657 5.63937 13.8557 5.58945 13.8455 5.54167H7Z" fill="#FEFEFE"/>
<path d="M13.8455 5.54167H7V8.45833H10.7836C10.1952 9.9876 8.7367 11.0833 7 11.0833C4.74485 11.0833 2.91667 9.25517 2.91667 7C2.91667 4.74482 4.74485 2.91667 7 2.91667C7.81777 2.91667 8.57144 3.16788 9.20996 3.58207C9.30772 3.64558 9.40853 3.70522 9.50034 3.77653L11.622 1.75239L11.5742 1.71557C10.3465 0.651624 8.75204 0 7 0C3.13399 0 0 3.13399 0 7C0 10.866 3.13399 14 7 14C10.5687 14 13.5074 11.3276 13.9394 7.87605C13.9758 7.58928 14 7.29674 14 7C14 6.49962 13.9453 6.0123 13.8455 5.54167Z" fill="#FEFEFE"/>
<path opacity="0.1" d="M9.20996 3.43623C8.57145 3.02205 7.81778 2.77083 7.00001 2.77083C4.74486 2.77083 2.91667 4.59898 2.91667 6.85416C2.91667 6.87878 2.917 6.89797 2.91743 6.92253C2.95677 4.70138 4.76946 2.91666 7.00001 2.91666C7.81778 2.91666 8.57145 3.16788 9.20996 3.58206C9.30773 3.64558 9.40853 3.70522 9.50035 3.77653L11.622 1.75238L9.50035 3.6307C9.40853 3.55938 9.30773 3.49974 9.20996 3.43623Z" fill="#FEFEFE"/>
<path opacity="0.2" d="M7 0.145833C8.73542 0.145833 10.315 0.786561 11.5379 1.8326L11.622 1.75239L11.5578 1.69649C10.3303 0.632543 8.75204 0 7 0C3.13399 0 0 3.13399 0 7C0 7.02462 0.00341798 7.04836 0.00366718 7.07292C0.0431874 3.24091 3.15859 0.145833 7 0.145833Z" fill="#FEFEFE"/>
</g>
<defs>
<clipPath id="clip0">
<rect width="14" height="14" fill="white"/>
</clipPath>
</defs>
</svg>
