<svg width="30" height="19" viewBox="0 0 30 19" fill="none" xmlns="http://www.w3.org/2000/svg">
<path d="M15 17.3333C19.6024 17.3333 23.3334 13.6024 23.3334 9.00001C23.3334 4.39763 19.6024 0.666672 15 0.666672C10.3976 0.666672 6.66669 4.39763 6.66669 9.00001C6.66669 13.6024 10.3976 17.3333 15 17.3333Z" fill="#FA8938"/>
<path d="M15 17.3333C19.6024 17.3333 23.3334 13.6024 23.3334 9.00001C23.3334 4.39763 19.6024 0.666672 15 0.666672C10.3976 0.666672 6.66669 4.39763 6.66669 9.00001C6.66669 13.6024 10.3976 17.3333 15 17.3333Z" fill="#D1FAE5"/>
<path d="M13.3964 12.9773L10.1464 9.72733C9.95119 9.53208 9.95119 9.2155 10.1464 9.02023L10.8535 8.31311C11.0488 8.11784 11.3654 8.11784 11.5606 8.31311L13.75 10.5025L18.4394 5.81311C18.6346 5.61786 18.9512 5.61786 19.1465 5.81311L19.8536 6.52022C20.0488 6.71548 20.0488 7.03206 19.8536 7.22733L14.1036 12.9774C13.9083 13.1726 13.5917 13.1726 13.3964 12.9773Z" fill="white"/>
</svg>
