<svg width="28" height="20" viewBox="0 0 28 20" fill="none" xmlns="http://www.w3.org/2000/svg">
<path d="M15 18.3333C19.6024 18.3333 23.3333 14.6024 23.3333 10C23.3333 5.39762 19.6024 1.66666 15 1.66666C10.3976 1.66666 6.66667 5.39762 6.66667 10C6.66667 14.6024 10.3976 18.3333 15 18.3333Z" fill="#FA8938"/>
<path d="M15 18.3333C19.6024 18.3333 23.3333 14.6024 23.3333 10C23.3333 5.39762 19.6024 1.66666 15 1.66666C10.3976 1.66666 6.66667 5.39762 6.66667 10C6.66667 14.6024 10.3976 18.3333 15 18.3333Z" fill="#D1FAE5"/>
<path d="M13.3964 13.9773L10.1464 10.7273C9.95119 10.5321 9.95119 10.2155 10.1464 10.0202L10.8535 9.31311C11.0488 9.11783 11.3654 9.11783 11.5606 9.31311L13.75 11.5024L18.4394 6.8131C18.6346 6.61785 18.9512 6.61785 19.1465 6.8131L19.8536 7.52021C20.0488 7.71547 20.0488 8.03205 19.8536 8.22732L14.1036 13.9774C13.9083 14.1726 13.5917 14.1726 13.3964 13.9773Z" fill="white"/>
</svg>
