<svg width="33" height="33" viewBox="0 0 33 33" fill="none" xmlns="http://www.w3.org/2000/svg">
<path d="M16.5 30.25C21.5626 30.25 25.6666 24.0939 25.6666 16.5C25.6666 8.90608 21.5626 2.75 16.5 2.75C11.4374 2.75 7.33331 8.90608 7.33331 16.5C7.33331 24.0939 11.4374 30.25 16.5 30.25Z" fill="#D1FAE5"/>
<path d="M16.5 33C25.6127 33 33 25.6127 33 16.5C33 7.3873 25.6127 0 16.5 0C7.3873 0 0 7.3873 0 16.5C0 25.6127 7.3873 33 16.5 33Z" fill="#B3FFD8"/>
<path d="M13.7929 23.7054L7.29288 17.168C6.90237 16.7753 6.90237 16.1385 7.29288 15.7457L8.70706 14.3233C9.09757 13.9305 9.73077 13.9305 10.1213 14.3233L14.5 18.7272L23.8787 9.29457C24.2692 8.90181 24.9024 8.90181 25.2929 9.29457L26.7071 10.7169C27.0976 11.1097 27.0976 11.7465 26.7071 12.1393L15.2071 23.7054C14.8166 24.0982 14.1834 24.0982 13.7929 23.7054V23.7054Z" fill="white"/>
</svg>
