<svg width="16" height="16" viewBox="0 0 16 16" fill="none" xmlns="http://www.w3.org/2000/svg">
<g clip-path="url(#clip0)">
<path d="M11.082 8.06374C10.5836 7.56532 9.98868 7.19842 9.33956 6.98002C9.93818 6.53758 10.3271 5.82696 10.3271 5.02714C10.3272 3.6888 9.23836 2.6 7.9 2.6C6.56166 2.6 5.47286 3.6888 5.47286 5.02714C5.47286 5.82698 5.86182 6.53758 6.46044 6.98002C5.81132 7.1984 5.21648 7.5653 4.71802 8.06374C3.86808 8.91368 3.4 10.0437 3.4 11.2457C3.4 11.4414 3.5586 11.6 3.75428 11.6H12.0457C12.2414 11.6 12.4 11.4414 12.4 11.2457C12.4 10.0437 11.9319 8.91368 11.082 8.06374ZM6.18142 5.02714C6.18142 4.0795 6.95238 3.30856 7.90002 3.30856C8.84768 3.30856 9.61862 4.0795 9.61862 5.02714C9.61862 5.97478 8.84768 6.74572 7.90002 6.74572C6.95238 6.74574 6.18142 5.97478 6.18142 5.02714ZM4.12498 10.8914C4.30416 8.9663 5.92884 7.45426 7.9 7.45426C9.87118 7.45426 11.4958 8.96628 11.675 10.8914H4.12498Z" fill="white"/>
<path d="M15.6 8C15.6 12.1974 12.1974 15.6 8 15.6C3.80264 15.6 0.400002 12.1974 0.400002 8C0.400002 3.80264 3.80264 0.4 8 0.4C12.1974 0.4 15.6 3.80264 15.6 8Z" stroke="white"/>
</g>
<defs>
<clipPath id="clip0">
<rect width="16" height="16" fill="white"/>
</clipPath>
</defs>
</svg>
